HIERARCHY
ROOT Hips
{
  OFFSET 0 0 0
  CHANNELS 6 Xposition Yposition Zposition Zrotation Yrotation Xrotation
  JOINT LeftThigh
  {
    OFFSET 8.409438 0 -5.917753
    CHANNELS 3 Zrotation Yrotation Xrotation
    JOINT LeftLeg
    {
      OFFSET 0 0 -42.358652
      CHANNELS 3 Zrotation Yrotation Xrotation
      JOINT LeftFoot
      {
        OFFSET 0 0 -39.357303
        CHANNELS 3 Zrotation Yrotation Xrotation
      }
    }
  }
  JOINT RightThigh
  {
    OFFSET -8.409438 0 -5.917753
    CHANNELS 3 Zrotation Yrotation Xrotation
    JOINT RightLeg
    {
      OFFSET 0 0 -42.358652
      CHANNELS 3 Zrotation Yrotation Xrotation
      JOINT RightFoot
      {
        OFFSET 0 0 -39.357303
        CHANNELS 3 Zrotation Yrotation Xrotation
      }
    }
  }
  JOINT SpineLow
  {
    OFFSET 0 0 4.719101
    CHANNELS 3 Zrotation Yrotation Xrotation
    JOINT SpineMid
    {
      OFFSET 0 0 12.899191
      CHANNELS 3 Zrotation Yrotation Xrotation
      JOINT Chest
      {
        OFFSET 0 0 12.899191
        CHANNELS 3 Zrotation Yrotation Xrotation
        JOINT LeftShoulder
        {
          OFFSET 7.550562 1.41573 9.438202
          CHANNELS 3 Zrotation Yrotation Xrotation
          JOINT LeftArm
          {
            OFFSET 9.155056 0 4.247191
            CHANNELS 3 Zrotation Yrotation Xrotation
            JOINT LeftForearm
            {
              OFFSET 0 0 25.771955
              CHANNELS 3 Zrotation Yrotation Xrotation
              JOINT LeftHand
              {
                OFFSET 0 0 25.197169
                CHANNELS 3 Zrotation Yrotation Xrotation
              }
            }
          }
        }
        JOINT RightShoulder
        {
          OFFSET -7.550562 1.41573 9.438202
          CHANNELS 3 Zrotation Yrotation Xrotation
          JOINT RightArm
          {
            OFFSET -9.155056 0 4.247191
            CHANNELS 3 Zrotation Yrotation Xrotation
            JOINT RightForearm
            {
              OFFSET 0 0 -25.771955
              CHANNELS 3 Zrotation Yrotation Xrotation
              JOINT RightHand
              {
                OFFSET 0 0 -25.197169
                CHANNELS 3 Zrotation Yrotation Xrotation
              }
            }
          }
        }
        JOINT Neck
        {
          OFFSET 0 0 15.101124
          CHANNELS 3 Zrotation Yrotation Xrotation
          JOINT Head
          {
            OFFSET 0 0 11.325843
            CHANNELS 3 Zrotation Yrotation Xrotation
            End Site
            {
              OFFSET 0 0 14.157303
            }
          }
        }
      }
    }
  }
}
MOTION
Frames: 13
Frame Time: 0.0
0.0  93.25843  0.0  -3.018392  -33.275758  -88.731428  23.506417  -15.428399  -2.416043  3.631673  2.599631  21.280888  12.09257  2.433619  3.373179  3.277806  -3.584397  -19.834577  1.861045  14.599119  24.193729  6.348059  3.038102  -0.683493  3.234365  -0.272846  -0.013521  8.841309  -0.742458  -0.073329  8.841309  -0.742458  -0.073329  -14.86949  1.168791  8.410976  -99.716373  44.961271  -54.362875  -15.777224  -12.588741  119.038014  96.816243  21.260567  11.09191  -10.124066  -10.979348  24.792747  86.107785  27.411746  51.261823  -16.483481  -10.92459  -110.163656  62.787469  -13.684923  -10.646717  1.71536  -0.492524  3.870927  1.289693  -0.358548  2.904586  
0.0  93.25843  0.0  -2.841294  -36.908389  -88.316363  23.154922  -14.75249  -1.084572  6.411474  2.014469  19.681842  12.656149  2.423833  3.472732  3.278036  -3.942203  -20.241147  2.930103  14.445902  22.874893  6.300943  2.747877  -0.71955  3.395809  -0.264134  -0.08713  9.283371  -0.708129  -0.274667  9.283372  -0.708129  -0.274667  -13.737692  -0.86146  8.640026  -93.365345  46.530731  -48.372181  -17.186349  -16.219173  119.073558  98.33929  23.457489  9.749572  -10.313522  -10.19337  25.049409  83.830269  25.98528  52.154336  -17.087914  -8.56987  -109.130049  63.36495  -13.338153  -10.43373  2.883478  -0.308478  3.903733  2.164679  -0.212955  2.929325  
0.0  93.25843  0.0  -2.826167  -39.835581  -87.914845  22.392902  -14.035884  0.211644  9.014495  1.392066  17.972017  13.354285  2.357049  3.68291  2.78714  -4.422462  -20.180053  3.937814  14.362386  21.165328  6.400024  2.449601  -0.712205  3.381316  -0.278018  -0.147967  9.244505  -0.737565  -0.442379  9.244505  -0.737565  -0.442379  -12.292692  -2.78801  8.794705  -85.926039  48.46911  -41.331706  -18.611542  -20.352615  118.479003  99.824684  25.723689  8.57254  -10.31959  -9.228686  25.386001  81.840465  24.883521  53.084247  -17.488462  -6.272523  -108.395153  64.24339  -13.259748  -9.871244  4.295423  -0.134987  3.912358  3.222587  -0.073749  2.935387  
0.0  93.25843  0.0  -2.94279  -42.062412  -87.492029  21.431328  -13.377001  1.291267  11.103522  0.795383  16.240505  14.001568  2.277167  3.816231  2.062271  -4.741115  -19.76118  4.825036  14.072598  19.188078  6.64295  2.165967  -0.56435  3.206227  -0.238614  -0.150406  8.765591  -0.630993  -0.441898  8.765592  -0.630993  -0.441898  -10.601932  -5.086301  8.40048  -77.569651  50.800282  -33.294752  -19.593374  -25.396993  117.113954  101.557034  27.926927  7.608344  -10.173359  -8.470331  25.270591  80.324418  23.700991  53.938135  -17.927855  -3.987947  -107.776858  64.464629  -13.172618  -8.84093  5.918461  -0.139198  3.653479  4.439864  -0.069026  2.74176  
0.0  93.25843  0.0  -3.196762  -43.677457  -87.019376  20.643374  -12.730205  2.138955  12.814261  0.015905  14.644933  14.479496  2.212447  3.969265  1.395882  -4.916395  -19.249499  5.805065  13.472303  17.387565  6.74242  1.971438  -0.387321  3.021614  -0.261168  -0.165504  8.261301  -0.691936  -0.484188  8.261301  -0.691936  -0.484188  -9.591957  -6.983391  8.08911  -68.560349  52.663552  -24.84752  -19.352229  -30.92857  115.268659  103.659713  30.153858  6.991267  -10.608725  -7.53218  24.903748  79.073628  22.194674  54.973567  -18.471833  -1.950069  -107.19388  62.152483  -11.575837  -8.651456  7.264409  -0.027499  3.484025  5.448673  0.020797  2.613784  
0.0  93.25843  0.0  -3.592952  -44.709394  -86.577681  20.187795  -12.311411  2.777961  13.770182  -0.644147  13.11555  14.915015  2.107992  4.141149  1.08783  -5.096153  -18.515654  6.648468  12.800672  15.736072  6.553312  1.936549  -0.306798  2.800704  -0.25321  -0.200707  7.657727  -0.667831  -0.577081  7.657727  -0.667831  -0.57708  -8.776002  -9.548751  8.305433  -58.623296  53.651533  -16.024647  -18.332107  -36.112897  112.676367  105.717935  32.119029  6.822318  -11.327989  -7.080779  24.421942  77.815112  20.407787  56.157102  -18.455961  -0.859013  -106.981746  60.840964  -10.245483  -8.088811  8.336494  -0.244962  3.304242  6.253902  -0.13868  2.482068  
0.0  93.25843  0.0  -4.896203  -43.287127  -85.212446  18.347333  -12.664437  2.593402  13.661257  -1.584255  11.412506  15.633412  2.185041  4.782971  -0.215139  -5.831111  -18.140634  6.721541  12.224736  14.187791  6.168719  1.951047  -0.194971  2.271789  -0.3481  -0.26048  6.213749  -0.926064  -0.743998  6.213749  -0.926064  -0.743997  -8.352966  -12.211135  8.122517  -47.373887  53.885646  -6.356402  -16.477616  -40.703193  109.079028  107.382894  33.399447  7.436975  -12.253747  -6.799989  23.734545  76.274855  18.756195  57.182245  -18.115407  -0.48406  -107.02286  61.284693  -10.006458  -7.427284  9.20044  -0.514323  2.921716  6.902929  -0.341853  2.199607  
0.0  93.25843  0.0  -5.103787  -43.442055  -85.026553  18.692793  -12.477029  2.876285  13.757292  -2.126564  10.355275  15.788997  2.046616  4.980615  1.240605  -5.443847  -17.452507  5.824258  11.786291  12.779531  5.779549  1.972061  -0.039983  2.060643  -0.398035  -0.221398  5.636605  -1.068216  -0.638616  5.636605  -1.068216  -0.638616  -8.083675  -14.659326  7.755486  -36.927388  53.603524  2.646851  -13.231753  -44.694036  104.475145  108.469518  34.216736  8.927682  -13.435587  -5.927262  23.13153  74.123358  17.428309  57.73175  -17.479847  -0.150237  -107.360567  62.247737  -12.301635  -7.062187  9.774794  -0.499788  2.580169  7.333314  -0.333676  1.9437  
0.0  93.25843  0.0  -5.527101  -43.021076  -84.944605  19.114901  -12.753393  3.029296  13.66307  -2.547953  9.670104  15.845419  1.934747  5.099336  2.961536  -5.099399  -16.531752  4.160525  11.42155  11.456437  5.328578  2.024622  0.065131  1.7785  -0.542004  -0.181336  4.866122  -1.467251  -0.535286  4.866122  -1.467251  -0.535286  -7.402846  -16.582083  8.035831  -28.778543  52.613963  9.351352  -8.260237  -48.028606  98.741877  109.144788  34.630338  10.735103  -14.459004  -4.54149  23.139873  71.434051  16.693715  57.630037  -16.964588  0.579654  -107.408196  61.195402  -10.974802  -5.984185  10.360646  -0.285348  2.434732  7.771752  -0.172791  1.831507  
0.0  93.25843  0.0  -6.129923  -42.089711  -84.522623  19.802592  -13.316595  2.602678  13.423893  -2.798435  9.282448  15.691039  1.918684  5.197885  4.695951  -4.789146  -15.947349  2.221172  10.990617  10.355714  4.97239  1.997816  0.168841  1.438249  -0.759431  -0.182918  3.938211  -2.064091  -0.545111  3.938211  -2.064091  -0.545111  -6.588504  -17.558134  8.839136  -22.02394  50.198737  14.807144  -2.138865  -49.567693  91.316744  109.651862  34.440825  12.271774  -15.325552  -3.037633  23.085265  68.56714  15.890449  57.220582  -16.668036  1.114315  -107.526111  60.580109  -10.164575  -5.310624  10.924617  0.133309  2.394186  8.193086  0.142843  1.793935  
0.0  93.25843  0.0  -7.273976  -39.814009  -83.244691  20.162201  -14.373928  1.234557  12.996902  -3.119365  9.157392  15.080668  2.107005  5.223281  5.08441  -4.959172  -16.104754  -0.221191  10.55462  9.234354  4.947291  2.007711  0.294573  0.879964  -1.055043  -0.312483  2.42029  -2.871982  -0.892933  2.42029  -2.871982  -0.892933  -6.005569  -18.478857  9.017634  -14.903583  48.224391  21.617915  3.714078  -49.147635  83.200149  110.120009  33.780178  14.48655  -15.392584  -2.370147  23.005862  65.683641  14.439133  56.960754  -16.896919  1.78486  -107.391716  60.311229  -9.022843  -4.011139  11.599644  0.549157  2.569024  8.697542  0.460844  1.917148  
0.0  93.25843  0.0  -7.909711  -38.012507  -82.283151  21.810246  -15.082566  -0.195108  11.772259  -3.014705  8.896552  14.465566  2.06766  5.233422  5.304293  -4.875581  -16.281553  -1.450216  10.046236  8.494094  4.864143  1.988344  0.369953  0.376397  -1.208161  -0.394223  1.049322  -3.296052  -1.097194  1.049322  -3.296052  -1.097194  -4.449138  -19.457616  8.343095  -9.621171  46.605943  27.165138  5.634484  -47.901752  78.595218  109.056057  32.510463  17.763882  -15.171533  -1.89244  22.680929  63.815515  12.382162  55.966368  -17.91215  2.312811  -107.125742  59.510071  -8.018371  -3.077642  12.374053  0.83586  2.541815  9.277092  0.678715  1.890318  
0.0  93.25843  0.0  -8.128571  -35.903306  -81.488999  23.714954  -15.401593  -1.666883  10.045301  -2.914928  8.554495  13.66631  2.070241  5.192894  4.60344  -4.677378  -16.522599  -2.154181  9.581382  7.823796  4.730151  1.954051  0.437571  -0.071058  -1.414688  -0.582205  -0.160297  -3.86836  -1.588908  -0.160297  -3.86836  -1.588908  -3.717336  -19.669332  8.720431  -6.122813  45.971901  30.690077  4.457383  -46.823171  76.491669  106.838855  31.667761  19.557978  -15.69546  -1.240972  22.584666  62.488653  10.506723  55.115057  -18.50767  2.187132  -107.063622  59.732507  -7.419998  -2.708271  12.850718  1.549124  2.947068  9.630251  1.224498  2.178722  
